# xmcd CD database file
# Copyright (C) 1997 Ti Kan
#
# Track frame offsets:
#  150
#  14962
#  32337
#  51942
#  67127
#  82927
#  97830
#  112882
#  128005
#  142260
#  158195
#  170655
#  184120
#  200287
#
# Disc length: 2899 seconds
#
# Revision: 1
# Processed by: cddbd v1.4b41PL1 Copyright (c) Steve Scherf et al.
# Submitted via: CDWizzard Release:4.24
#
DISCID=be0b510e
DTITLE=Wagon - No Kinder Room
DYEAR=1900
DGENRE=
TTITLE0=I Worry
TTITLE1=No Kinder Room
TTITLE2=Too Long Here
TTITLE3=Three A.M.
TTITLE4=Downtown Larry Brown
TTITLE5=She's Alone
TTITLE6=Wishful Thinking
TTITLE7=Angeline
TTITLE8=Confused By Him
TTITLE9=Crumble
TTITLE10=Driving Home
TTITLE11=Yesterday's Coffee
TTITLE12=Rob Berry
TTITLE13=Change My Mind
EXTD=
EXTT0=
EXTT1=
EXTT2=
EXTT3=
EXTT4=
EXTT5=
EXTT6=
EXTT7=
EXTT8=
EXTT9=
EXTT10=
EXTT11=
EXTT12=
EXTT13=
PLAYORDER=
